<svg xmlns="http://www.w3.org/2000/svg" viewBox="0 0 735.83 187.46"><defs><style>.cls-1{fill:#fff;}</style></defs><g id="Layer_2" data-name="Layer 2"><g id="Layer_1-2" data-name="Layer 1"><rect class="cls-1" x="10.32" y="70.22" width="49.81" height="49.81" transform="translate(-56.95 52.77) rotate(-45)"></rect><path class="cls-1" d="M90.47,187.46,53.63,150.63l36.84-36.84,36.83,36.84ZM56.86,150.63l33.61,33.6,33.6-33.6L90.47,117Z"></path><path class="cls-1" d="M91,76.17,54.17,39.33,91,2.5l36.84,36.84ZM57.4,39.33,91,72.94l33.61-33.6L91,5.73Z"></path><rect class="cls-1" x="121.35" y="69.94" width="49.81" height="49.81" transform="translate(-24.23 131.2) rotate(-45)"></rect><path class="cls-1" d="M201.11,185.16l-36.83-36.84,36.83-36.84,36.83,36.84Zm-33.6-36.84,33.6,33.6,33.6-33.6-33.6-33.6Z"></path><path class="cls-1" d="M202,76,165.12,39.14,202,2.31l36.83,36.84Zm-33.6-36.84L202,72.75l33.6-33.6L202,5.54Z"></path><rect class="cls-1" x="231.9" y="67.72" width="49.81" height="49.81" transform="translate(9.73 208.73) rotate(-45)"></rect><path class="cls-1" d="M312.06,185l-36.84-36.83,36.84-36.84,36.83,36.84Zm-33.61-36.83,33.61,33.6,33.6-33.6-33.6-33.61Z"></path><path class="cls-1" d="M312.59,73.67,275.76,36.83,312.59,0l36.83,36.84ZM279,36.83l33.6,33.61,33.6-33.6L312.59,3.23Z"></path><rect class="cls-1" x="342.94" y="67.44" width="49.81" height="49.81" transform="translate(42.45 287.16) rotate(-45)"></rect><path class="cls-1" d="M423.24,187.46,386.4,150.63l36.83-36.84,36.84,36.84Zm-33.61-36.83,33.61,33.6,33.6-33.6L423.23,117Z"></path><path class="cls-1" d="M423.77,76.17,386.94,39.33,423.77,2.5,460.6,39.34Zm-33.6-36.84,33.6,33.61,33.6-33.6L423.77,5.73Z"></path><rect class="cls-1" x="454.12" y="69.94" width="49.81" height="49.81" transform="translate(73.25 366.51) rotate(-45)"></rect><path class="cls-1" d="M533.88,185.16,497,148.32l36.84-36.84,36.83,36.84Zm-33.61-36.84,33.61,33.6,33.6-33.6-33.6-33.6Z"></path><path class="cls-1" d="M534.72,76,497.88,39.14,534.72,2.31l36.83,36.84Zm-33.6-36.84,33.6,33.61,33.6-33.6L534.72,5.54Z"></path><rect class="cls-1" x="564.67" y="67.72" width="49.81" height="49.81" transform="translate(107.2 444.03) rotate(-45)"></rect><path class="cls-1" d="M644.82,185,608,148.13l36.83-36.84,36.84,36.84Zm-33.6-36.83,33.6,33.6,33.61-33.6-33.61-33.61Z"></path><path class="cls-1" d="M645.36,73.67,608.53,36.83,645.36,0l36.83,36.84Zm-33.6-36.84,33.6,33.61L679,36.84,645.36,3.23Z"></path><rect class="cls-1" x="675.71" y="67.44" width="49.81" height="49.81" transform="translate(139.92 522.47) rotate(-45)"></rect></g></g></svg>